<?xml version="1.0" encoding="utf-8"?>
<!-- Generator: Adobe Illustrator 23.0.3, SVG Export Plug-In . SVG Version: 6.00 Build 0)  -->
<svg version="1.1" id="Layer_1" xmlns="http://www.w3.org/2000/svg" xmlns:xlink="http://www.w3.org/1999/xlink" x="0px" y="0px"
	 viewBox="0 0 1366 768" style="enable-background:new 0 0 1366 768;" xml:space="preserve">
<style type="text/css">
	.st0{fill:#C1272D;stroke:#86272D;stroke-miterlimit:10;}
	.st1{fill:url(#SVGID_1_);}
	.st2{fill:url(#SVGID_2_);}
	.st3{fill:url(#SVGID_3_);}
	.st4{fill:url(#SVGID_4_);}
	.st5{fill:url(#SVGID_5_);}
	.st6{fill:url(#SVGID_6_);}
	.st7{fill:#00FFFF;stroke:#001CFF;stroke-miterlimit:10;}
	.st8{font-family:'GillSans-UltraBold';}
	.st9{font-size:72px;}
	.st10{font-size:48px;}
	.st11{font-family:'FreestyleScript-Regular';}
	.st12{font-size:33.6453px;}
</style>
<g>
	<path class="st0" d="M565.47,276.89h-14.68l11.51-35.77h20.92l11.51,35.77h-14.66l-1.91-6.05h-10.77L565.47,276.89z M570.06,262.4
		h5.43l-2.71-8.88L570.06,262.4z"/>
	<path class="st0" d="M598.05,241.12h21.65c3.75,0,6.7,1.02,8.84,3.06c2.14,2.04,3.21,4.59,3.21,7.65c0,3.38-1.26,6.02-3.78,7.92
		c3.58,4.41,5.71,10.12,6.41,17.13h-15.22c-0.28-4.52-0.9-7.85-1.88-10.01c-0.98-2.16-2.5-3.23-4.57-3.23v13.24h-14.66V241.12z
		 M612.71,248.48v6.89h0.41c2.64,0,3.95-1.12,3.95-3.35c0-0.94-0.27-1.76-0.8-2.47s-1.43-1.07-2.67-1.07H612.71z"/>
	<path class="st0" d="M637.99,276.89v-35.77h14.66v35.77H637.99z"/>
	<path class="st0" d="M670.68,276.89H656l11.51-35.77h20.92l11.51,35.77h-14.66l-1.91-6.05h-10.77L670.68,276.89z M675.26,262.4
		h5.43l-2.71-8.88L675.26,262.4z"/>
</g>
<g>
	<g>
		<linearGradient id="SVGID_1_" gradientUnits="userSpaceOnUse" x1="493.3242" y1="299.8213" x2="812.7822" y2="299.8213">
			<stop  offset="0.0902" style="stop-color:#0000FF"/>
			<stop  offset="0.156" style="stop-color:#0A0AFF"/>
			<stop  offset="0.2697" style="stop-color:#2626FF"/>
			<stop  offset="0.4175" style="stop-color:#5454FF"/>
			<stop  offset="0.5938" style="stop-color:#9393FF"/>
			<stop  offset="0.792" style="stop-color:#E2E2FF"/>
			<stop  offset="0.8599" style="stop-color:#FFFFFF"/>
		</linearGradient>
		<path class="st1" d="M544.1,265.9l-5.91,16.91c-3.87-5.23-8.31-7.84-13.32-7.84c-2.79,0-4.18,1.05-4.18,3.16
			c0,0.66,0.44,1.32,1.32,2c0.88,0.68,3.18,1.75,6.91,3.2c4.1,1.62,7.26,3.09,9.47,4.41c2.21,1.32,3.87,3.02,4.97,5.08
			c1.1,2.06,1.65,4.46,1.65,7.21c0,5.74-2.18,10.12-6.54,13.13c-4.36,3.01-10.77,4.52-19.23,4.52c-9.49,0-17.67-1.35-24.54-4.04
			l5.8-17.93c1.69,2.63,3.78,4.71,6.28,6.26s4.89,2.32,7.19,2.32c1.13,0,2.07-0.29,2.83-0.88c0.76-0.59,1.14-1.3,1.14-2.14
			c0-0.8-0.37-1.56-1.11-2.29c-0.74-0.73-2.69-1.73-5.85-3.02c-2.86-1.15-5.23-2.27-7.1-3.36c-1.88-1.09-3.5-2.64-4.89-4.66
			c-1.38-2.02-2.07-4.56-2.07-7.63c0-5.95,2.17-10.44,6.5-13.46c4.34-3.02,10.73-4.54,19.2-4.54
			C530.35,262.31,537.51,263.5,544.1,265.9z"/>
		<linearGradient id="SVGID_2_" gradientUnits="userSpaceOnUse" x1="493.3242" y1="299.8213" x2="812.7822" y2="299.8213">
			<stop  offset="0.0902" style="stop-color:#0000FF"/>
			<stop  offset="0.156" style="stop-color:#0A0AFF"/>
			<stop  offset="0.2697" style="stop-color:#2626FF"/>
			<stop  offset="0.4175" style="stop-color:#5454FF"/>
			<stop  offset="0.5938" style="stop-color:#9393FF"/>
			<stop  offset="0.792" style="stop-color:#E2E2FF"/>
			<stop  offset="0.8599" style="stop-color:#FFFFFF"/>
		</linearGradient>
		<path class="st2" d="M549.92,281.04h21.68c4.58,0,8.09,1.16,10.55,3.48s3.68,5.19,3.68,8.61c0,3.34-1.16,6.19-3.49,8.53
			s-5.13,3.52-8.41,3.52c-2.73,0-5.46-1.04-8.18-3.12v14.74h-15.82V281.04z M565.74,288.77v7.78c0.47,0.13,0.91,0.19,1.31,0.19
			c1.19,0,2.15-0.38,2.88-1.13s1.1-1.73,1.1-2.95c0-1.2-0.31-2.15-0.94-2.85s-1.52-1.04-2.67-1.04H565.74z"/>
		<linearGradient id="SVGID_3_" gradientUnits="userSpaceOnUse" x1="493.3242" y1="299.8213" x2="812.7822" y2="299.8213">
			<stop  offset="0.0902" style="stop-color:#0000FF"/>
			<stop  offset="0.156" style="stop-color:#0A0AFF"/>
			<stop  offset="0.2697" style="stop-color:#2626FF"/>
			<stop  offset="0.4175" style="stop-color:#5454FF"/>
			<stop  offset="0.5938" style="stop-color:#9393FF"/>
			<stop  offset="0.792" style="stop-color:#E2E2FF"/>
			<stop  offset="0.8599" style="stop-color:#FFFFFF"/>
		</linearGradient>
		<path class="st3" d="M589.74,316.8v-35.77h15.84v26.79h13.88v8.98H589.74z"/>
		<linearGradient id="SVGID_4_" gradientUnits="userSpaceOnUse" x1="493.3242" y1="299.8213" x2="812.7822" y2="299.8213">
			<stop  offset="0.0902" style="stop-color:#0000FF"/>
			<stop  offset="0.156" style="stop-color:#0A0AFF"/>
			<stop  offset="0.2697" style="stop-color:#2626FF"/>
			<stop  offset="0.4175" style="stop-color:#5454FF"/>
			<stop  offset="0.5938" style="stop-color:#9393FF"/>
			<stop  offset="0.792" style="stop-color:#E2E2FF"/>
			<stop  offset="0.8599" style="stop-color:#FFFFFF"/>
		</linearGradient>
		<path class="st4" d="M635.7,316.8h-15.84l12.42-35.77h22.57l12.42,35.77h-15.82l-2.06-6.05h-11.63L635.7,316.8z M640.65,302.32
			h5.86l-2.93-8.88L640.65,302.32z"/>
		<linearGradient id="SVGID_5_" gradientUnits="userSpaceOnUse" x1="493.3242" y1="299.8213" x2="812.7822" y2="299.8213">
			<stop  offset="0.0902" style="stop-color:#0000FF"/>
			<stop  offset="0.156" style="stop-color:#0A0AFF"/>
			<stop  offset="0.2697" style="stop-color:#2626FF"/>
			<stop  offset="0.4175" style="stop-color:#5454FF"/>
			<stop  offset="0.5938" style="stop-color:#9393FF"/>
			<stop  offset="0.792" style="stop-color:#E2E2FF"/>
			<stop  offset="0.8599" style="stop-color:#FFFFFF"/>
		</linearGradient>
		<path class="st5" d="M700.86,282.86l-3.94,11.27c-2.58-3.48-5.54-5.23-8.88-5.23c-1.86,0-2.79,0.7-2.79,2.11
			c0,0.44,0.29,0.88,0.88,1.34s2.12,1.16,4.61,2.13c2.73,1.08,4.84,2.06,6.32,2.94s2.58,2.01,3.32,3.39s1.1,2.98,1.1,4.8
			c0,3.83-1.45,6.75-4.36,8.75s-7.18,3.01-12.82,3.01c-6.33,0-11.78-0.9-16.36-2.7l3.87-11.95c1.13,1.75,2.52,3.14,4.18,4.17
			s3.26,1.55,4.79,1.55c0.75,0,1.38-0.2,1.89-0.59s0.76-0.87,0.76-1.43c0-0.53-0.25-1.04-0.74-1.52s-1.79-1.16-3.9-2.02
			c-1.91-0.77-3.48-1.51-4.73-2.24s-2.34-1.76-3.26-3.11s-1.38-3.04-1.38-5.09c0-3.97,1.45-6.96,4.34-8.98s7.16-3.02,12.8-3.02
			C691.7,280.47,696.47,281.27,700.86,282.86z"/>
		<linearGradient id="SVGID_6_" gradientUnits="userSpaceOnUse" x1="493.3242" y1="299.8213" x2="812.7822" y2="299.8213">
			<stop  offset="0.0902" style="stop-color:#0000FF"/>
			<stop  offset="0.156" style="stop-color:#0A0AFF"/>
			<stop  offset="0.2697" style="stop-color:#2626FF"/>
			<stop  offset="0.4175" style="stop-color:#5454FF"/>
			<stop  offset="0.5938" style="stop-color:#9393FF"/>
			<stop  offset="0.792" style="stop-color:#E2E2FF"/>
			<stop  offset="0.8599" style="stop-color:#FFFFFF"/>
		</linearGradient>
		<path class="st6" d="M731.13,316.8h-23.77v-53.65h23.77v19.65h12.09v-19.65h23.77v53.65h-23.77v-19.93h-12.09V316.8z"/>
	</g>
	<text transform="matrix(1 0 0 1 493.8242 316.8018)"><tspan x="0" y="0" class="st7 st8 st9">S</tspan><tspan x="52.49" y="0" class="st7 st8 st10">PLAS</tspan><tspan x="208.51" y="0" class="st7 st8 st9">H</tspan></text>
</g>
<text transform="matrix(1.0271 -0.4892 0.43 0.9028 533.6933 259.3491)" class="st11 st12">The</text>
</svg>
